<mxfile host="65bd71144e">
    <diagram id="c-lYK_TBvYpa1ykm9YsT" name="第 1 页">
        <mxGraphModel dx="1160" dy="860" grid="1" gridSize="10" guides="1" tooltips="1" connect="1" arrows="1" fold="1" page="1" pageScale="1" pageWidth="827" pageHeight="583" math="0" shadow="0">
            <root>
                <mxCell id="0"/>
                <mxCell id="1" parent="0"/>
                <mxCell id="6" value="" style="edgeStyle=none;html=1;fontFamily=Times New Roman;fontSize=14;" edge="1" parent="1" source="2" target="4">
                    <mxGeometry relative="1" as="geometry"/>
                </mxCell>
                <mxCell id="14" style="edgeStyle=none;html=1;exitX=0.5;exitY=0;exitDx=0;exitDy=0;fontFamily=Times New Roman;fontSize=14;entryX=0.831;entryY=1.02;entryDx=0;entryDy=0;entryPerimeter=0;" edge="1" parent="1" source="2" target="27">
                    <mxGeometry relative="1" as="geometry">
                        <mxPoint x="379" y="442" as="targetPoint"/>
                    </mxGeometry>
                </mxCell>
                <mxCell id="2" value="&lt;font face=&quot;Times New Roman&quot; style=&quot;font-size: 18px;&quot;&gt;Memory&lt;/font&gt;" style="whiteSpace=wrap;html=1;" vertex="1" parent="1">
                    <mxGeometry x="319" y="482" width="120" height="60" as="geometry"/>
                </mxCell>
                <mxCell id="5" value="" style="edgeStyle=none;html=1;fontFamily=Times New Roman;fontSize=14;" edge="1" parent="1" source="3" target="2">
                    <mxGeometry relative="1" as="geometry"/>
                </mxCell>
                <mxCell id="3" value="&lt;font style=&quot;font-size: 14px;&quot;&gt;MAR&lt;/font&gt;" style="whiteSpace=wrap;html=1;fontFamily=Times New Roman;fontSize=18;" vertex="1" parent="1">
                    <mxGeometry x="230" y="489.5" width="49" height="45" as="geometry"/>
                </mxCell>
                <mxCell id="7" value="" style="edgeStyle=none;html=1;fontFamily=Times New Roman;fontSize=14;" edge="1" parent="1" source="4" target="2">
                    <mxGeometry relative="1" as="geometry"/>
                </mxCell>
                <mxCell id="4" value="&lt;font style=&quot;font-size: 14px;&quot;&gt;MDR&lt;/font&gt;" style="whiteSpace=wrap;html=1;fontFamily=Times New Roman;fontSize=18;" vertex="1" parent="1">
                    <mxGeometry x="479" y="489.5" width="50" height="45" as="geometry"/>
                </mxCell>
                <mxCell id="23" value="" style="edgeStyle=none;html=1;fontFamily=Times New Roman;fontSize=14;entryX=0;entryY=0.5;entryDx=0;entryDy=0;exitX=1;exitY=0.5;exitDx=0;exitDy=0;" edge="1" parent="1" source="13" target="69">
                    <mxGeometry relative="1" as="geometry">
                        <mxPoint x="319" y="313" as="targetPoint"/>
                    </mxGeometry>
                </mxCell>
                <mxCell id="13" value="&lt;font face=&quot;Times New Roman&quot; style=&quot;font-size: 18px;&quot;&gt;Decoder&lt;/font&gt;" style="whiteSpace=wrap;html=1;" vertex="1" parent="1">
                    <mxGeometry x="214" y="294" width="80" height="40" as="geometry"/>
                </mxCell>
                <mxCell id="15" style="edgeStyle=none;html=1;fontFamily=Times New Roman;fontSize=14;exitX=0.831;exitY=1.011;exitDx=0;exitDy=0;exitPerimeter=0;" edge="1" parent="1" source="27">
                    <mxGeometry relative="1" as="geometry">
                        <mxPoint x="378.5" y="482" as="targetPoint"/>
                        <mxPoint x="379" y="452" as="sourcePoint"/>
                        <Array as="points"/>
                    </mxGeometry>
                </mxCell>
                <mxCell id="21" value="" style="edgeStyle=none;html=1;fontFamily=Times New Roman;fontSize=14;" edge="1" parent="1" source="16" target="13">
                    <mxGeometry relative="1" as="geometry"/>
                </mxCell>
                <mxCell id="37" style="edgeStyle=none;html=1;exitX=1;exitY=0.5;exitDx=0;exitDy=0;entryX=0;entryY=0.5;entryDx=0;entryDy=0;fontFamily=Times New Roman;fontSize=14;" edge="1" parent="1" source="27" target="30">
                    <mxGeometry relative="1" as="geometry"/>
                </mxCell>
                <mxCell id="48" style="edgeStyle=none;html=1;exitX=0.75;exitY=0;exitDx=0;exitDy=0;entryX=0.5;entryY=1;entryDx=0;entryDy=0;fontFamily=Times New Roman;fontSize=14;" edge="1" parent="1" source="27" target="47">
                    <mxGeometry relative="1" as="geometry"/>
                </mxCell>
                <mxCell id="27" value="" style="swimlane;startSize=0;fontFamily=Times New Roman;fontSize=14;" vertex="1" parent="1">
                    <mxGeometry x="189" y="252" width="229" height="170" as="geometry"/>
                </mxCell>
                <mxCell id="29" value="Instruction Unit" style="text;html=1;strokeColor=none;fillColor=none;align=center;verticalAlign=middle;whiteSpace=wrap;rounded=0;fontFamily=Times New Roman;fontSize=14;" vertex="1" parent="27">
                    <mxGeometry x="10" y="1" width="110" height="30" as="geometry"/>
                </mxCell>
                <mxCell id="76" style="edgeStyle=none;html=1;exitX=0.5;exitY=1;exitDx=0;exitDy=0;entryX=0.5;entryY=0;entryDx=0;entryDy=0;fontFamily=Times New Roman;fontSize=14;" edge="1" parent="27" source="69" target="75">
                    <mxGeometry relative="1" as="geometry"/>
                </mxCell>
                <mxCell id="69" value="&lt;font face=&quot;Times New Roman&quot; style=&quot;font-size: 18px;&quot;&gt;Instruction Queue&lt;/font&gt;" style="whiteSpace=wrap;html=1;" vertex="1" parent="27">
                    <mxGeometry x="130" y="32" width="93" height="60" as="geometry"/>
                </mxCell>
                <mxCell id="16" value="&lt;font face=&quot;Times New Roman&quot; style=&quot;font-size: 18px;&quot;&gt;Fetcher&lt;/font&gt;" style="whiteSpace=wrap;html=1;" vertex="1" parent="27">
                    <mxGeometry x="25" y="120" width="80" height="40" as="geometry"/>
                </mxCell>
                <mxCell id="75" value="&lt;font face=&quot;Times New Roman&quot; style=&quot;font-size: 18px;&quot;&gt;Issue&lt;br&gt;Unit&lt;br&gt;&lt;/font&gt;" style="whiteSpace=wrap;html=1;" vertex="1" parent="27">
                    <mxGeometry x="130" y="100" width="93" height="60" as="geometry"/>
                </mxCell>
                <mxCell id="39" value="" style="edgeStyle=none;html=1;fontFamily=Times New Roman;fontSize=14;" edge="1" parent="1" source="30" target="38">
                    <mxGeometry relative="1" as="geometry"/>
                </mxCell>
                <mxCell id="49" style="edgeStyle=none;html=1;exitX=0.25;exitY=0;exitDx=0;exitDy=0;entryX=0.75;entryY=1;entryDx=0;entryDy=0;fontFamily=Times New Roman;fontSize=14;" edge="1" parent="1" source="30" target="47">
                    <mxGeometry relative="1" as="geometry">
                        <Array as="points">
                            <mxPoint x="505" y="232"/>
                            <mxPoint x="387" y="232"/>
                        </Array>
                    </mxGeometry>
                </mxCell>
                <mxCell id="30" value="&lt;font face=&quot;Times New Roman&quot; style=&quot;font-size: 18px;&quot;&gt;Reorder Buffer&lt;br&gt;&lt;/font&gt;" style="whiteSpace=wrap;html=1;" vertex="1" parent="1">
                    <mxGeometry x="479" y="252" width="100" height="170" as="geometry"/>
                </mxCell>
                <mxCell id="52" style="edgeStyle=none;html=1;exitX=0.5;exitY=1;exitDx=0;exitDy=0;entryX=0.75;entryY=1;entryDx=0;entryDy=0;fontFamily=Times New Roman;fontSize=14;" edge="1" parent="1" source="38" target="47">
                    <mxGeometry relative="1" as="geometry">
                        <Array as="points">
                            <mxPoint x="529" y="232"/>
                            <mxPoint x="387" y="232"/>
                        </Array>
                    </mxGeometry>
                </mxCell>
                <mxCell id="65" value="" style="edgeStyle=none;html=1;fontFamily=Times New Roman;fontSize=14;" edge="1" parent="1" source="38" target="30">
                    <mxGeometry relative="1" as="geometry"/>
                </mxCell>
                <mxCell id="38" value="&lt;font face=&quot;Times New Roman&quot; style=&quot;font-size: 18px;&quot;&gt;Register&lt;br&gt;File&lt;br&gt;&lt;/font&gt;" style="whiteSpace=wrap;html=1;" vertex="1" parent="1">
                    <mxGeometry x="480" y="82" width="99" height="112.5" as="geometry"/>
                </mxCell>
                <mxCell id="55" style="edgeStyle=none;html=1;exitX=0.75;exitY=0;exitDx=0;exitDy=0;entryX=0.5;entryY=1;entryDx=0;entryDy=0;fontFamily=Times New Roman;fontSize=14;" edge="1" parent="1" target="53">
                    <mxGeometry relative="1" as="geometry">
                        <mxPoint x="388.5" y="122.00000000000011" as="sourcePoint"/>
                    </mxGeometry>
                </mxCell>
                <mxCell id="44" value="&lt;font face=&quot;Times New Roman&quot; style=&quot;font-size: 18px;&quot;&gt;Load/Store&lt;br&gt;Buffer&lt;br&gt;&lt;/font&gt;" style="whiteSpace=wrap;html=1;" vertex="1" parent="1">
                    <mxGeometry x="195" y="122" width="90" height="72.5" as="geometry"/>
                </mxCell>
                <mxCell id="45" style="edgeStyle=none;html=1;entryX=0.5;entryY=1;entryDx=0;entryDy=0;fontFamily=Times New Roman;fontSize=14;" edge="1" parent="1" target="44">
                    <mxGeometry relative="1" as="geometry">
                        <mxPoint x="240" y="252" as="sourcePoint"/>
                    </mxGeometry>
                </mxCell>
                <mxCell id="86" style="edgeStyle=none;shape=link;html=1;exitX=0.25;exitY=0;exitDx=0;exitDy=0;strokeWidth=1;fontFamily=Times New Roman;fontSize=14;" edge="1" parent="1" source="47">
                    <mxGeometry relative="1" as="geometry">
                        <mxPoint x="335.2380952380952" y="40" as="targetPoint"/>
                    </mxGeometry>
                </mxCell>
                <mxCell id="47" value="&lt;span style=&quot;font-family: &amp;quot;Times New Roman&amp;quot;; font-size: 18px;&quot;&gt;Resesrvation&lt;/span&gt;&lt;br style=&quot;font-family: &amp;quot;Times New Roman&amp;quot;; font-size: 18px;&quot;&gt;&lt;span style=&quot;font-family: &amp;quot;Times New Roman&amp;quot;; font-size: 18px;&quot;&gt;Station&lt;/span&gt;&lt;font face=&quot;Times New Roman&quot; style=&quot;font-size: 18px;&quot;&gt;&lt;br&gt;&lt;/font&gt;" style="whiteSpace=wrap;html=1;" vertex="1" parent="1">
                    <mxGeometry x="310" y="122" width="102" height="72.5" as="geometry"/>
                </mxCell>
                <mxCell id="50" style="edgeStyle=none;html=1;exitX=0.25;exitY=0;exitDx=0;exitDy=0;entryX=0.75;entryY=1;entryDx=0;entryDy=0;fontFamily=Times New Roman;fontSize=14;" edge="1" parent="1" source="30" target="44">
                    <mxGeometry relative="1" as="geometry">
                        <mxPoint x="521.5" y="350" as="sourcePoint"/>
                        <mxPoint x="371" y="204.5" as="targetPoint"/>
                        <Array as="points">
                            <mxPoint x="505" y="232"/>
                            <mxPoint x="263" y="232"/>
                        </Array>
                    </mxGeometry>
                </mxCell>
                <mxCell id="54" style="edgeStyle=none;html=1;exitX=0.5;exitY=1;exitDx=0;exitDy=0;entryX=0.75;entryY=0;entryDx=0;entryDy=0;fontFamily=Times New Roman;fontSize=14;" edge="1" parent="1" source="53">
                    <mxGeometry relative="1" as="geometry">
                        <mxPoint x="388.5" y="122.00000000000011" as="targetPoint"/>
                    </mxGeometry>
                </mxCell>
                <mxCell id="53" value="&lt;font style=&quot;font-size: 14px;&quot;&gt;ALU&lt;/font&gt;" style="whiteSpace=wrap;html=1;fontFamily=Times New Roman;fontSize=18;" vertex="1" parent="1">
                    <mxGeometry x="364" y="55" width="50" height="45" as="geometry"/>
                </mxCell>
                <mxCell id="60" value="Load.IR" style="text;html=1;strokeColor=none;fillColor=none;align=center;verticalAlign=middle;whiteSpace=wrap;rounded=0;fontFamily=Times New Roman;fontSize=14;" vertex="1" parent="1">
                    <mxGeometry x="379" y="440" width="60" height="30" as="geometry"/>
                </mxCell>
                <mxCell id="62" value="Load.MDR" style="text;html=1;strokeColor=none;fillColor=none;align=center;verticalAlign=middle;whiteSpace=wrap;rounded=0;fontFamily=Times New Roman;fontSize=14;" vertex="1" parent="1">
                    <mxGeometry x="519" y="452" width="60" height="30" as="geometry"/>
                </mxCell>
                <mxCell id="64" value="Load.MAR" style="text;html=1;strokeColor=none;fillColor=none;align=center;verticalAlign=middle;whiteSpace=wrap;rounded=0;fontFamily=Times New Roman;fontSize=14;" vertex="1" parent="1">
                    <mxGeometry x="270" y="452" width="60" height="30" as="geometry"/>
                </mxCell>
                <mxCell id="79" value="" style="edgeStyle=none;orthogonalLoop=1;jettySize=auto;html=1;fontFamily=Times New Roman;fontSize=14;shape=link;" edge="1" parent="1">
                    <mxGeometry width="80" relative="1" as="geometry">
                        <mxPoint x="160" y="40" as="sourcePoint"/>
                        <mxPoint x="640" y="440" as="targetPoint"/>
                        <Array as="points">
                            <mxPoint x="240" y="40"/>
                            <mxPoint x="640" y="40"/>
                            <mxPoint x="640" y="337"/>
                        </Array>
                    </mxGeometry>
                </mxCell>
                <mxCell id="87" value="" style="edgeStyle=none;orthogonalLoop=1;jettySize=auto;html=1;strokeWidth=1;fontFamily=Times New Roman;fontSize=14;shape=link;dashed=1;" edge="1" parent="1">
                    <mxGeometry width="80" relative="1" as="geometry">
                        <mxPoint x="160" y="40" as="sourcePoint"/>
                        <mxPoint x="640" y="440" as="targetPoint"/>
                        <Array as="points">
                            <mxPoint x="160" y="40"/>
                            <mxPoint x="160" y="440"/>
                        </Array>
                    </mxGeometry>
                </mxCell>
                <mxCell id="90" style="edgeStyle=none;shape=link;html=1;exitX=0.5;exitY=0;exitDx=0;exitDy=0;strokeWidth=1;fontFamily=Times New Roman;fontSize=14;" edge="1" parent="1" source="44">
                    <mxGeometry relative="1" as="geometry">
                        <mxPoint x="240" y="40" as="targetPoint"/>
                        <mxPoint x="345.5" y="132.0000000000001" as="sourcePoint"/>
                    </mxGeometry>
                </mxCell>
                <mxCell id="91" style="edgeStyle=none;shape=link;html=1;exitX=1;exitY=0.5;exitDx=0;exitDy=0;strokeWidth=1;fontFamily=Times New Roman;fontSize=14;" edge="1" parent="1" source="30">
                    <mxGeometry relative="1" as="geometry">
                        <mxPoint x="640" y="337" as="targetPoint"/>
                        <mxPoint x="690" y="322.0000000000001" as="sourcePoint"/>
                    </mxGeometry>
                </mxCell>
                <mxCell id="92" style="edgeStyle=none;shape=link;html=1;exitX=0.5;exitY=0;exitDx=0;exitDy=0;strokeWidth=1;fontFamily=Times New Roman;fontSize=14;dashed=1;" edge="1" parent="1" source="3">
                    <mxGeometry relative="1" as="geometry">
                        <mxPoint x="254" y="440" as="targetPoint"/>
                        <mxPoint x="345.5" y="132.0000000000001" as="sourcePoint"/>
                    </mxGeometry>
                </mxCell>
                <mxCell id="93" style="edgeStyle=none;shape=link;html=1;exitX=0.5;exitY=0;exitDx=0;exitDy=0;strokeWidth=1;fontFamily=Times New Roman;fontSize=14;dashed=1;" edge="1" parent="1">
                    <mxGeometry relative="1" as="geometry">
                        <mxPoint x="503.52" y="440" as="targetPoint"/>
                        <mxPoint x="504.01999999999975" y="489.5" as="sourcePoint"/>
                    </mxGeometry>
                </mxCell>
                <mxCell id="94" style="edgeStyle=none;shape=link;html=1;strokeWidth=1;fontFamily=Times New Roman;fontSize=14;dashed=1;entryX=0;entryY=0.5;entryDx=0;entryDy=0;" edge="1" parent="1" target="44">
                    <mxGeometry relative="1" as="geometry">
                        <mxPoint x="190" y="158" as="targetPoint"/>
                        <mxPoint x="160" y="158" as="sourcePoint"/>
                    </mxGeometry>
                </mxCell>
            </root>
        </mxGraphModel>
    </diagram>
</mxfile>